<svg width="512" height="512" viewBox="0 0 512 512" fill="none" xmlns="http://www.w3.org/2000/svg">
<path d="M321.317 155.505H381.279L373.478 210.712H313.029L296.942 322.066C295.642 330.874 295.803 338.11 297.428 343.772C299.378 349.434 303.116 353.681 308.641 356.512C314.491 359.343 322.454 360.759 332.529 360.759H341.303C344.228 360.444 347.641 359.971 351.541 359.342L346.666 412.189C342.116 413.447 336.916 414.234 331.067 414.549C325.542 414.864 320.667 415.021 316.442 415.021C285.892 415.021 263.142 406.842 248.192 390.485C233.567 373.813 228.203 351.164 232.103 322.539L248.192 210.712H34.1443L41.9446 155.505H214.067C227.066 155.505 237.953 151.888 246.728 144.653C255.503 137.418 260.704 127.508 262.329 114.926L264.766 96.9958H329.603L321.317 155.505Z" fill="url(#paint0_linear_1446_117)"/>
<defs>
<linearGradient id="paint0_linear_1446_117" x1="34.1443" y1="256.008" x2="381.279" y2="256.008" gradientUnits="userSpaceOnUse">
<stop stop-color="#D5A7A4"/>
<stop offset="1" stop-color="#4A4ACD"/>
</linearGradient>
</defs>
</svg>
